# xmcd
#
# Track frame offsets:
#	150
#	16784
#	32994
#	51501
#	69981
#
# Disc length: 1259 seconds
#
# Revision: 0
# Processed by: cddbd v1.5.2PL0 Copyright (c) Steve Scherf et al.
# Submitted via: EasyCDDAExtractor 16.0.6.1
#
DISCID=3c04e905
DTITLE=John Park - Knock
DYEAR=2012
DGENRE=Pop
TTITLE0=Falling
TTITLE1=왜 그럴까
TTITLE2=이게 아닌데
TTITLE3=Good Day
TTITLE4=그 노래
EXTD=
EXTT0=
EXTT1=
EXTT2=
EXTT3=
EXTT4=
PLAYORDER=
